:SAMPLES-PER-SECOND 30
:FULLY-SPECIFIED
:DEGREES
93
root  -6.04371 40.8908 0.366093 161.61 -87.8747 -162.476
RightUpLeg  6.08056 -1.84915 -1.53377
RightLeg  -3.19694 -22.829 1.35559
RightFoot  -0.481744 -0.345159 3.73492
RightToes  -3.11842e-008 1.75238e-005 3.56266e-009
Spine  -11.1659 -1.01674 -2.6901
Spine1  19.5095 -1.66262 2.42945
HEad  -20.4692 -0.529706 12.4139
LeftShoulder1  2.29338 -4.57936 -22.0223
LeftArm  -46.4158 -8.01611 -40.6812
LeftForeArm  155.788 -68.8532 -153.061
LeftHand  -0.457656 -1.31573 8.06796
RightShoulder  3.03855 6.4033 24.5732
RightArm  -34.6373 1.09473 36.0781
RightForeArm  145.491 75.0825 139.566
RightHand  -1.13206 9.21866 -9.34162
LeftUpLeg  6.70918 2.13872 3.17457
LeftLeg  -3.01052 18.576 -1.17358
LeftFoot  -1.43569 0.292229 -3.25228
LeftToes  4.78904e-008 1.4679e-008 1.35657e-009
94
root  -6.0303 40.8966 0.361765 162.026 -87.9963 -162.965
RightUpLeg  6.19167 -1.9104 -1.60962
RightLeg  -3.27784 -22.8694 1.42298
RightFoot  -0.49025 -0.349925 3.78468
RightToes  -3.11842e-008 1.75238e-005 3.56266e-009
Spine  -10.7885 -0.950286 -2.41275
Spine1  18.7139 -1.48638 2.03655
HEad  -19.4658 -0.241521 12.3124
LeftShoulder1  1.94457 -3.87373 -19.9276
LeftArm  -48.372 -16.9127 -35.453
LeftForeArm  155.449 -72.6754 -146.852
LeftHand  -0.398958 -1.42036 6.9879
RightShoulder  2.86908 6.28748 23.112
RightArm  -38.6366 7.76936 31.9987
RightForeArm  140.284 76.6592 133.505
RightHand  -1.00757 8.33473 -8.87026
LeftUpLeg  6.53569 2.27297 3.24134
LeftLeg  -2.53857 18.2926 -1.15826
LeftFoot  -1.46338 0.303023 -3.40952
LeftToes  4.78904e-008 1.4679e-008 1.35657e-009
95
root  -5.99993 40.8996 0.337736 163.45 -88.3338 -164.352
RightUpLeg  6.03875 -2.02408 -1.72811
RightLeg  -3.03228 -23.0545 1.35707
RightFoot  -0.623596 -0.355669 3.84585
RightToes  -3.11842e-008 1.75238e-005 3.56266e-009
Spine  -9.75255 -0.637782 -1.99849
Spine1  16.8227 -1.02361 1.62688
HEad  -17.3044 -0.821411 11.5597
LeftShoulder1  1.80643 -4.04994 -17.2538
LeftArm  -51.8106 -26.6312 -29.5064
LeftForeArm  148.78 -76.9948 -134.207
LeftHand  -0.379487 -2.09406 6.06334
RightShoulder  2.54378 5.85892 20.8604
RightArm  -43.9183 15.0332 27.4253
RightForeArm  136.515 77.9368 127.254
RightHand  -0.950702 8.41596 -8.33047
LeftUpLeg  6.22789 2.50741 3.37171
LeftLeg  -2.16153 17.6847 -1.35582
LeftFoot  -1.51339 0.312686 -3.53338
LeftToes  4.78904e-008 1.4679e-008 1.35657e-009
96
root  -5.95267 40.904 0.287942 174.106 -88.6288 -174.852
RightUpLeg  5.50272 -2.15979 -1.98363
RightLeg  -2.31143 -23.16 1.04791
RightFoot  -0.906745 -0.376192 4.10204
RightToes  -3.11842e-008 1.75238e-005 3.56266e-009
Spine  -8.25774 -0.602251 -2.28331
Spine1  14.2448 -0.968566 1.82876
HEad  -14.4433 -0.925489 10.5246
LeftShoulder1  1.55809 -3.78971 -14.4739
LeftArm  -57.4545 -35.5157 -22.012
LeftForeArm  125.774 -80.0624 -109.719
LeftHand  -0.316462 -1.46927 5.52656
RightShoulder  2.26741 5.69987 18.1146
RightArm  -49.8672 23.633 22.2383
RightForeArm  127.951 79.3444 116.461
RightHand  -0.7232 7.43287 -6.88766
LeftUpLeg  5.68279 2.62272 3.32297
LeftLeg  -1.62405 17.1991 -1.50846
LeftFoot  -1.3848 0.323557 -3.62073
LeftToes  4.78904e-008 1.4679e-008 1.35657e-009
97
root  -5.92194 40.928 0.208885 -165.819 -88.787 165.608
RightUpLeg  4.65089 -2.23214 -2.27901
RightLeg  -1.82866 -23.3266 0.767622
RightFoot  -0.92299 -0.382451 4.12094
RightToes  -3.11842e-008 1.75238e-005 3.56266e-009
Spine  -6.41269 -0.548983 -2.69454
Spine1  10.6184 -0.884485 2.07507
HEad  -11.9269 -0.534842 9.36313
LeftShoulder1  1.25942 -3.31041 -11.3004
LeftArm  -63.9517 -42.1124 -14.9775
LeftForeArm  92.0964 -80.3774 -74.3709
LeftHand  -0.382793 -1.82149 6.32433
RightShoulder  1.90327 5.33405 14.7318
RightArm  -56.3308 31.9338 17.785
RightForeArm  113.63 80.3868 100.011
RightHand  -0.601622 7.20264 -5.89177
LeftUpLeg  4.44111 2.87858 3.34897
LeftLeg  -0.460938 16.4528 -1.74687
LeftFoot  -1.16431 0.380652 -4.19518
LeftToes  4.78904e-008 1.4679e-008 1.35657e-009
98
root  -5.89033 41.0015 0.114514 -140.216 -88.348 140.652
RightUpLeg  3.68239 -2.46632 -2.9118
RightLeg  -1.50223 -23.0746 0.578697
RightFoot  -0.586173 -0.399088 4.19585
RightToes  -3.11842e-008 1.75238e-005 3.56266e-009
Spine  -3.72474 -0.322282 -2.3322
Spine1  5.68683 -0.350254 0.869015
HEad  -8.89141 -0.0637613 8.05659
LeftShoulder1  0.901346 -2.36638 -7.72509
LeftArm  -69.7985 -46.7315 -9.53917
LeftForeArm  71.194 -78.1442 -49.8454
LeftHand  -0.525103 -1.84827 8.6207
RightShoulder  1.503 4.72025 11.1037
RightArm  -62.0228 38.8777 14.3039
RightForeArm  97.7099 80.4997 83.7998
RightHand  -0.745706 7.24105 -7.18808
LeftUpLeg  3.04515 2.90009 3.03605
LeftLeg  0.72137 16.1728 -1.89639
LeftFoot  -0.0854957 0.470905 -4.76881
LeftToes  4.78904e-008 1.4679e-008 1.35657e-009
